<svg xmlns="http://www.w3.org/2000/svg" viewBox="0 0 500 145.3"><defs><style>.cls-1{fill:#393d40;}.cls-1,.cls-2{fill-rule:evenodd;}.cls-2,.cls-3{fill:#00c277;}</style></defs><title>ReferYes_Logo_Green</title><g id="Layer_2" data-name="Layer 2"><g id="Layer_1-2" data-name="Layer 1"><path class="cls-1" d="M72.44,143.12v1H48.11l-14.9-29.75H22.69v29.75H0v-88H35.71a47.92,47.92,0,0,1,17.94,3,25.42,25.42,0,0,1,11.77,9,24.73,24.73,0,0,1,4.17,14.51q0,10.15-3.87,16a28,28,0,0,1-11.34,9.52l18.06,34.94ZM22.69,96h13c3.69,0,6.47-.92,8.36-2.75s2.83-4.53,2.83-8.07-1-6.15-2.92-8-4.71-2.84-8.27-2.84h-13V96Zm119,22.61h-40a12,12,0,0,0,4.78,6.74,15,15,0,0,0,8.67,2.39,23.69,23.69,0,0,0,8.3-1.46,15.6,15.6,0,0,0,6.66-4.71l9.67,12.63a23.76,23.76,0,0,1-6,5.41,34.34,34.34,0,0,1-9,4.09,38.38,38.38,0,0,1-11.13,1.57,37.29,37.29,0,0,1-18.43-4.36,30.11,30.11,0,0,1-12-11.63,31.75,31.75,0,0,1-4.1-15.81v-2.24a40.32,40.32,0,0,1,3.53-17.14A27.69,27.69,0,0,1,93.55,82q7.24-4.5,17.88-4.5a32.53,32.53,0,0,1,16.09,3.81,25.56,25.56,0,0,1,10.53,11,37.17,37.17,0,0,1,3.68,17.11v9.25ZM120.5,103.16q.24-8.16-9.25-8.16-4.5,0-6.75,2.66a14.56,14.56,0,0,0-3,7.25h19v-1.75Zm55.05-24.48H188.2V94.33H175.55v49.76h-21.9V94.33h-9.43V78.68h9.43v-4.9a25.25,25.25,0,0,1,3.13-13,20.08,20.08,0,0,1,8.91-8.1A31.63,31.63,0,0,1,179.38,50a43.26,43.26,0,0,1,9.91,1.33l.19,16.63a19.7,19.7,0,0,0-4.93-.55A11.62,11.62,0,0,0,177.89,69a5.46,5.46,0,0,0-2.34,4.78v4.9Zm79.62,40h-40a11.93,11.93,0,0,0,4.77,6.74,15,15,0,0,0,8.67,2.39,23.65,23.65,0,0,0,8.3-1.46,15.49,15.49,0,0,0,6.66-4.71l9.67,12.63a23.59,23.59,0,0,1-6,5.41,34,34,0,0,1-9,4.09,38.38,38.38,0,0,1-11.13,1.57,37.29,37.29,0,0,1-18.43-4.36,30.09,30.09,0,0,1-11.95-11.63,31.66,31.66,0,0,1-4.11-15.81v-2.24a40.47,40.47,0,0,1,3.53-17.14A27.69,27.69,0,0,1,207,82q7.24-4.5,17.89-4.5A32.59,32.59,0,0,1,241,81.28a25.6,25.6,0,0,1,10.52,11,37.17,37.17,0,0,1,3.68,17.11v9.25Zm-21.23-15.48q.24-8.16-9.25-8.16-4.5,0-6.75,2.66a14.56,14.56,0,0,0-3,7.25h19v-1.75Zm64.42-25.69a20.94,20.94,0,0,1,5.77.66l-.36,21.28-1.7-.12c-2.36-.24-4.1-.36-5.24-.36a19.58,19.58,0,0,0-7.81,1.3,8.31,8.31,0,0,0-4.29,4v39.84H263V78.68h20.32l.73,8.64A19.26,19.26,0,0,1,290.11,80a14.15,14.15,0,0,1,8.25-2.54Z"/><path class="cls-2" d="M437.41,118.64H397.48a12,12,0,0,0,4.77,6.74,15,15,0,0,0,8.66,2.39,23.64,23.64,0,0,0,8.3-1.45,15.62,15.62,0,0,0,6.65-4.72l9.67,12.64a24.15,24.15,0,0,1-6,5.41,34.43,34.43,0,0,1-9,4.08,38.32,38.32,0,0,1-11.12,1.57A37.39,37.39,0,0,1,391,141a30.21,30.21,0,0,1-11.94-11.64A31.72,31.72,0,0,1,375,113.5v-2.23a40.47,40.47,0,0,1,3.52-17.14A27.75,27.75,0,0,1,389.28,82q7.23-4.5,17.87-4.5a32.51,32.51,0,0,1,16.07,3.81,25.57,25.57,0,0,1,10.51,11,37.16,37.16,0,0,1,3.68,17.1v9.25ZM416.2,103.17Q416.44,95,407,95q-4.48,0-6.74,2.66a14.56,14.56,0,0,0-3,7.25h19v-1.75Zm50.07,16q-10.38-2.25-16.71-7.29a16.15,16.15,0,0,1-6.32-13.27A18.47,18.47,0,0,1,446.49,88a22.47,22.47,0,0,1,9.45-7.68,34.84,34.84,0,0,1,14.71-2.87,41.78,41.78,0,0,1,15.53,2.66,22.86,22.86,0,0,1,10.23,7.52A18.63,18.63,0,0,1,500,99H478.18c0-2.5-.55-4.28-1.67-5.35s-3.09-1.6-5.92-1.6a8.3,8.3,0,0,0-4.83,1.39,4.41,4.41,0,0,0-2,3.87q0,4.77,10.39,6.4a60.61,60.61,0,0,1,13,3.36,22,22,0,0,1,9.11,6.56q3.56,4.35,3.56,11.3a16.56,16.56,0,0,1-3.59,10.42A23.72,23.72,0,0,1,486,142.64a41.09,41.09,0,0,1-15.37,2.66,35.13,35.13,0,0,1-15.77-3.3,25.48,25.48,0,0,1-10.15-8.46A18.62,18.62,0,0,1,441.18,123h20.23a7,7,0,0,0,2.68,5.75,11.53,11.53,0,0,0,7.11,1.93,9.63,9.63,0,0,0,5.68-1.42,4.51,4.51,0,0,0,2-3.84,3.15,3.15,0,0,0-1.12-2.45,11.17,11.17,0,0,0-3.77-1.87,78.36,78.36,0,0,0-7.69-2Z"/><polygon class="cls-3" points="444.18 0 412.46 0 343.27 67.94 313.53 40.52 297.23 55.81 331.69 88.95 331.69 144.31 354.33 144.31 354.33 89.12 444.18 0"/></g></g></svg>